<svg width="36" height="36" viewBox="0 0 36 36" fill="none" xmlns="http://www.w3.org/2000/svg">
<g id="Frame 1183">
<rect width="36" height="36" rx="8" fill="#7C87F3"/>
<g id="En">
<path d="M9.638 17.436H16.118V18.966H9.638V17.436ZM9.8 23.034H17.144V24.6H8V12H16.892V13.566H9.8V23.034Z" fill="white"/>
<path d="M24.9006 14.97C25.6806 14.97 26.3646 15.12 26.9526 15.42C27.5526 15.72 28.0206 16.176 28.3566 16.788C28.6926 17.4 28.8606 18.174 28.8606 19.11V24.6H27.1326V19.308C27.1326 18.384 26.9046 17.688 26.4486 17.22C26.0046 16.752 25.3746 16.518 24.5586 16.518C23.9466 16.518 23.4126 16.638 22.9566 16.878C22.5006 17.118 22.1466 17.472 21.8946 17.94C21.6546 18.408 21.5346 18.99 21.5346 19.686V24.6H19.8066V15.06H21.4626V17.634L21.1926 16.95C21.5046 16.326 21.9846 15.84 22.6326 15.492C23.2806 15.144 24.0366 14.97 24.9006 14.97Z" fill="white"/>
</g>
</g>
</svg>
