<svg width="24" height="24" viewBox="0 0 24 24" fill="none" xmlns="http://www.w3.org/2000/svg">
<g id="vuesax/linear/element-3">
<g id="vuesax/linear/element-3_2">
<g id="element-3">
<path id="Vector" d="M22 8.52V3.98C22 2.57 21.36 2 19.77 2L15.73 2C14.14 2 13.5 2.57 13.5 3.98V8.51C13.5 9.93 14.14 10.49 15.73 10.49H19.77C21.36 10.5 22 9.93 22 8.52Z" stroke="#292929" stroke-width="1.25" stroke-linecap="round" stroke-linejoin="round"/>
<path id="Vector_2" d="M22 19.77V15.73C22 14.14 21.36 13.5 19.77 13.5H15.73C14.14 13.5 13.5 14.14 13.5 15.73V19.77C13.5 21.36 14.14 22 15.73 22H19.77C21.36 22 22 21.36 22 19.77Z" stroke="#292929" stroke-width="1.25" stroke-linecap="round" stroke-linejoin="round"/>
<path id="Vector_3" d="M10.5 8.52V3.98C10.5 2.57 9.86002 2 8.27002 2L4.23002 2C2.64002 2 2.00002 2.57 2.00002 3.98L2.00002 8.51C2.00002 9.93 2.64002 10.49 4.23002 10.49H8.27002C9.86002 10.5 10.5 9.93 10.5 8.52Z" stroke="#292929" stroke-width="1.25" stroke-linecap="round" stroke-linejoin="round"/>
<path id="Vector_4" d="M10.5 19.77V15.73C10.5 14.14 9.86002 13.5 8.27002 13.5H4.23002C2.64002 13.5 2.00002 14.14 2.00002 15.73L2.00002 19.77C2.00002 21.36 2.64002 22 4.23002 22H8.27002C9.86002 22 10.5 21.36 10.5 19.77Z" stroke="#292929" stroke-width="1.25" stroke-linecap="round" stroke-linejoin="round"/>
</g>
</g>
</g>
</svg>
