<svg width="36" height="36" viewBox="0 0 36 36" fill="none" xmlns="http://www.w3.org/2000/svg">
<g id="Group 792">
<path id="Star 1" d="M17.5984 0.541352C17.7983 0.271869 18.2017 0.27187 18.4016 0.541352L20.5534 3.44218C20.7066 3.64869 20.9914 3.70535 21.212 3.57318L24.3101 1.71664C24.5979 1.54417 24.9706 1.69852 25.0521 2.02399L25.9301 5.52747C25.9926 5.77689 26.2341 5.93824 26.4884 5.90053L30.0612 5.37091C30.3931 5.32171 30.6783 5.60692 30.6291 5.93883L30.0995 9.5116C30.0618 9.76594 30.2231 10.0074 30.4725 10.0699L33.976 10.9479C34.3015 11.0294 34.4558 11.4021 34.2834 11.6899L32.4268 14.788C32.2947 15.0086 32.3513 15.2934 32.5578 15.4466L35.4586 17.5984C35.7281 17.7983 35.7281 18.2017 35.4586 18.4016L32.5578 20.5534C32.3513 20.7066 32.2947 20.9914 32.4268 21.212L34.2834 24.3101C34.4558 24.5979 34.3015 24.9706 33.976 25.0521L30.4725 25.9301C30.2231 25.9926 30.0618 26.2341 30.0995 26.4884L30.6291 30.0612C30.6783 30.3931 30.3931 30.6783 30.0612 30.6291L26.4884 30.0995C26.2341 30.0618 25.9926 30.2231 25.9301 30.4725L25.0521 33.976C24.9706 34.3015 24.5979 34.4558 24.3101 34.2834L21.212 32.4268C20.9914 32.2947 20.7066 32.3513 20.5534 32.5578L18.4016 35.4586C18.2017 35.7281 17.7983 35.7281 17.5984 35.4586L15.4466 32.5578C15.2934 32.3513 15.0086 32.2947 14.788 32.4268L11.6899 34.2834C11.4021 34.4558 11.0294 34.3015 10.9479 33.976L10.0699 30.4725C10.0074 30.2231 9.76594 30.0618 9.5116 30.0995L5.93883 30.6291C5.60692 30.6783 5.32171 30.3931 5.37091 30.0612L5.90053 26.4884C5.93824 26.2341 5.77689 25.9926 5.52747 25.9301L2.02399 25.0521C1.69852 24.9706 1.54417 24.5979 1.71664 24.3101L3.57318 21.212C3.70535 20.9914 3.64869 20.7066 3.44218 20.5534L0.541352 18.4016C0.271869 18.2017 0.27187 17.7983 0.541352 17.5984L3.44218 15.4466C3.64869 15.2934 3.70535 15.0086 3.57318 14.788L1.71664 11.6899C1.54417 11.4021 1.69852 11.0294 2.02399 10.9479L5.52747 10.0699C5.77689 10.0074 5.93824 9.76594 5.90053 9.5116L5.37091 5.93883C5.32171 5.60692 5.60692 5.32171 5.93883 5.37091L9.5116 5.90053C9.76594 5.93824 10.0074 5.77689 10.0699 5.52747L10.9479 2.02399C11.0294 1.69852 11.4021 1.54417 11.6899 1.71664L14.788 3.57318C15.0086 3.70535 15.2934 3.64869 15.4466 3.44218L17.5984 0.541352Z" fill="#646FD4"/>
<path id="Vector (Stroke)" fill-rule="evenodd" clip-rule="evenodd" d="M24.6781 13.5898C25.2729 14.2097 25.2524 15.1944 24.6325 15.7892L17.2199 22.9003C16.6177 23.4781 15.6667 23.4776 15.065 22.8992L11.3664 19.3436C10.7471 18.7482 10.7277 17.7635 11.3231 17.1442C11.9184 16.5248 12.9032 16.5054 13.5225 17.1008L16.1442 19.6211L22.4787 13.5441C23.0987 12.9494 24.0834 12.9698 24.6781 13.5898Z" fill="white"/>
</g>
</svg>
