<svg width="36" height="37" viewBox="0 0 36 37" fill="none" xmlns="http://www.w3.org/2000/svg">
<g id="Frame 1214">
<g id="coin">
<path id="Vector" d="M14.0002 18.4001C14.0002 19.1701 14.6002 19.8001 15.3302 19.8001H16.8302C17.4702 19.8001 17.9902 19.2501 17.9902 18.5801C17.9902 17.8501 17.6702 17.5901 17.2002 17.4201L14.8002 16.5801C14.3202 16.4101 14.0002 16.1501 14.0002 15.4201C14.0002 14.7501 14.5202 14.2001 15.1602 14.2001H16.6602C17.4002 14.2101 18.0002 14.8301 18.0002 15.6001" stroke="#292929" stroke-width="1.5" stroke-linecap="round" stroke-linejoin="round"/>
<path id="Vector_2" d="M15.9998 19.85V20.59" stroke="#292929" stroke-width="1.5" stroke-linecap="round" stroke-linejoin="round"/>
<path id="Vector_3" d="M15.9998 13.41V14.19" stroke="#292929" stroke-width="1.5" stroke-linecap="round" stroke-linejoin="round"/>
<path id="Vector_4" d="M15.9902 24.9799C20.403 24.9799 23.9802 21.4026 23.9802 16.9899C23.9802 12.5771 20.403 8.99988 15.9902 8.99988C11.5775 8.99988 8.00024 12.5771 8.00024 16.9899C8.00024 21.4026 11.5775 24.9799 15.9902 24.9799Z" stroke="#292929" stroke-width="1.5" stroke-linecap="round" stroke-linejoin="round"/>
<path id="Vector_5" d="M18.98 26.8801C19.88 28.1501 21.35 28.9801 23.03 28.9801C25.76 28.9801 27.98 26.7601 27.98 24.0301C27.98 22.3701 27.16 20.9001 25.91 20.0001" stroke="#292929" stroke-width="1.5" stroke-linecap="round" stroke-linejoin="round"/>
</g>
</g>
</svg>
