<svg width="36" height="37" viewBox="0 0 36 37" fill="none" xmlns="http://www.w3.org/2000/svg">
<g id="vuesax/linear/group">
<g id="vuesax/linear/group_2">
<path id="Vector" d="M18 12.0599H28" stroke="#292929" stroke-width="1.5" stroke-miterlimit="10" stroke-linecap="round" stroke-linejoin="round"/>
<path id="Vector_2" d="M20.22 8.5H25.78C27.56 8.5 28 8.94 28 10.7V14.81C28 16.57 27.56 17.01 25.78 17.01H20.22C18.44 17.01 18 16.57 18 14.81V10.7C18 8.94 18.44 8.5 20.22 8.5Z" stroke="#292929" stroke-width="1.5" stroke-linecap="round" stroke-linejoin="round"/>
<path id="Vector_3" d="M8 23.5599H18" stroke="#292929" stroke-width="1.5" stroke-miterlimit="10" stroke-linecap="round" stroke-linejoin="round"/>
<path id="Vector_4" d="M10.22 20H15.78C17.56 20 18 20.44 18 22.2V26.31C18 28.07 17.56 28.51 15.78 28.51H10.22C8.44 28.51 8 28.07 8 26.31V22.2C8 20.44 8.44 20 10.22 20Z" stroke="#292929" stroke-width="1.5" stroke-linecap="round" stroke-linejoin="round"/>
<g id="Group">
<path id="Vector_5" d="M28 21.5C28 25.37 24.87 28.5 21 28.5L22.05 26.75" stroke="#292929" stroke-width="1.5" stroke-linecap="round" stroke-linejoin="round"/>
<path id="Vector_6" d="M8 15.5C8 11.63 11.13 8.5 15 8.5L13.95 10.25" stroke="#292929" stroke-width="1.5" stroke-linecap="round" stroke-linejoin="round"/>
</g>
</g>
</g>
</svg>
