<svg width="12" height="15" viewBox="0 0 12 15" fill="none" xmlns="http://www.w3.org/2000/svg">
<path id="Vector" d="M2.16116 1.5H9.83884C10.4795 1.5 11 2.0424 11 2.70997V4.04511C11 4.53535 10.7097 5.14034 10.4194 5.44283L7.91692 7.74803C7.56657 8.05052 7.33634 8.65551 7.33634 9.14575V11.7534C7.33634 12.1185 7.10611 12.5983 6.81582 12.7861L6.00501 13.3181C5.24424 13.8083 4.2032 13.2555 4.2032 12.2854V9.07274C4.2032 8.64508 3.97297 8.10268 3.73273 7.80018L1.52052 5.36982C1.23023 5.07775 1 4.52492 1 4.15985V2.77255C1 2.0424 1.52052 1.5 2.16116 1.5Z" stroke="#292929" stroke-opacity="0.5" stroke-width="1.25" stroke-miterlimit="10" stroke-linecap="round" stroke-linejoin="round"/>
</svg>
