<svg width="36" height="36" viewBox="0 0 36 36" fill="none" xmlns="http://www.w3.org/2000/svg">
<g id="Frame 1199">
<rect width="36" height="36" rx="8" fill="#CBE091"/>
<g id="vuesax/linear/receipt-item">
<path id="Vector" d="M28 12V14.42C28 16 27 17 25.42 17H22V10.01C22 8.9 22.91 8 24.02 8C25.11 8.01 26.11 8.45 26.83 9.17C27.55 9.9 28 10.9 28 12Z" stroke="#698916" stroke-width="1.35" stroke-miterlimit="10" stroke-linecap="round" stroke-linejoin="round"/>
<path id="Vector_2" d="M8 13V27C8 27.83 8.94 28.3 9.6 27.8L11.31 26.52C11.71 26.22 12.27 26.26 12.63 26.62L14.29 28.29C14.68 28.68 15.32 28.68 15.71 28.29L17.39 26.61C17.74 26.26 18.3 26.22 18.69 26.52L20.4 27.8C21.06 28.29 22 27.82 22 27V10C22 8.9 22.9 8 24 8H13H12C9 8 8 9.79 8 12V13Z" stroke="#698916" stroke-width="1.35" stroke-miterlimit="10" stroke-linecap="round" stroke-linejoin="round"/>
<path id="Vector_3" d="M15 19.0099H18" stroke="#698916" stroke-width="1.35" stroke-linecap="round" stroke-linejoin="round"/>
<path id="Vector_4" d="M15 15.0099H18" stroke="#698916" stroke-width="1.35" stroke-linecap="round" stroke-linejoin="round"/>
<path id="Vector_5" d="M11.9956 19H12.0046" stroke="#698916" stroke-width="1.35" stroke-linecap="round" stroke-linejoin="round"/>
<path id="Vector_6" d="M11.9956 15H12.0046" stroke="#698916" stroke-width="1.35" stroke-linecap="round" stroke-linejoin="round"/>
</g>
</g>
</svg>
