<svg width="36" height="36" viewBox="0 0 36 36" fill="none" xmlns="http://www.w3.org/2000/svg">
<g id="vuesax/linear/people">
<rect width="36" height="36" rx="8" fill="#646FD4"/>
<g id="vuesax/linear/people_2">
<g id="people">
<g id="Group">
<path id="Vector" d="M24 13.1601C23.94 13.1501 23.87 13.1501 23.81 13.1601C22.43 13.1101 21.33 11.9801 21.33 10.5801C21.33 9.15012 22.48 8.00012 23.91 8.00012C25.34 8.00012 26.49 9.16012 26.49 10.5801C26.48 11.9801 25.38 13.1101 24 13.1601Z" stroke="#F4F4F4" stroke-width="1.25" stroke-linecap="round" stroke-linejoin="round"/>
<path id="Vector_2" d="M22.97 20.4399C24.34 20.6699 25.85 20.4299 26.91 19.7199C28.32 18.7799 28.32 17.2399 26.91 16.2999C25.84 15.5899 24.31 15.3499 22.94 15.5899" stroke="#F4F4F4" stroke-width="1.25" stroke-linecap="round" stroke-linejoin="round"/>
</g>
<g id="Group_2">
<path id="Vector_3" d="M11.9699 13.16C12.0299 13.15 12.0999 13.15 12.1599 13.16C13.5399 13.11 14.6399 11.98 14.6399 10.58C14.6399 9.15 13.4899 8 12.0599 8C10.6299 8 9.47992 9.16 9.47992 10.58C9.48992 11.98 10.5899 13.11 11.9699 13.16Z" stroke="#F4F4F4" stroke-width="1.25" stroke-linecap="round" stroke-linejoin="round"/>
<path id="Vector_4" d="M13 20.4399C11.63 20.6699 10.12 20.4299 9.06 19.7199C7.65 18.7799 7.65 17.2399 9.06 16.2999C10.13 15.5899 11.66 15.3499 13.03 15.5899" stroke="#F4F4F4" stroke-width="1.25" stroke-linecap="round" stroke-linejoin="round"/>
</g>
<g id="Group_3">
<path id="Vector_5" d="M18 20.63C17.94 20.62 17.87 20.62 17.81 20.63C16.43 20.58 15.33 19.45 15.33 18.05C15.33 16.62 16.48 15.47 17.91 15.47C19.34 15.47 20.49 16.63 20.49 18.05C20.48 19.45 19.38 20.59 18 20.63Z" stroke="#F4F4F4" stroke-width="1.25" stroke-linecap="round" stroke-linejoin="round"/>
<path id="Vector_6" d="M15.09 23.78C13.68 24.72 13.68 26.26 15.09 27.2C16.69 28.27 19.31 28.27 20.91 27.2C22.32 26.26 22.32 24.72 20.91 23.78C19.32 22.72 16.69 22.72 15.09 23.78Z" stroke="#F4F4F4" stroke-width="1.25" stroke-linecap="round" stroke-linejoin="round"/>
</g>
</g>
</g>
</g>
</svg>
