<svg width="36" height="36" viewBox="0 0 36 36" fill="none" xmlns="http://www.w3.org/2000/svg">
<g id="vuesax/linear/book">
<rect width="36" height="36" rx="8" fill="#646FD4"/>
<g id="vuesax/linear/book_2">
<g id="book">
<path id="Vector" d="M28 22.7399V10.6699C28 9.46994 27.02 8.57994 25.83 8.67994H25.77C23.67 8.85994 20.48 9.92994 18.7 11.0499L18.53 11.1599C18.24 11.3399 17.76 11.3399 17.47 11.1599L17.22 11.0099C15.44 9.89994 12.26 8.83994 10.16 8.66994C8.97 8.56994 8 9.46994 8 10.6599V22.7399C8 23.6999 8.78 24.5999 9.74 24.7199L10.03 24.7599C12.2 25.0499 15.55 26.1499 17.47 27.1999L17.51 27.2199C17.78 27.3699 18.21 27.3699 18.47 27.2199C20.39 26.1599 23.75 25.0499 25.93 24.7599L26.26 24.7199C27.22 24.5999 28 23.6999 28 22.7399Z" stroke="white" stroke-width="1.25" stroke-linecap="round" stroke-linejoin="round"/>
<path id="Vector_2" d="M18 11.49V26.49" stroke="white" stroke-width="1.25" stroke-linecap="round" stroke-linejoin="round"/>
<path id="Vector_3" d="M13.75 14.49H11.5" stroke="white" stroke-width="1.25" stroke-linecap="round" stroke-linejoin="round"/>
<path id="Vector_4" d="M14.5 17.49H11.5" stroke="white" stroke-width="1.25" stroke-linecap="round" stroke-linejoin="round"/>
</g>
</g>
</g>
</svg>
